# xmcd
#
# Track frame offsets: 
#        150
#        13666
#        24183
#        40091
#        53817
#        67081
#        82216
#        94413
#        106710
#        121661
#        134819
#        152731
#
# Disc length: 2182 seconds
#
# Revision: 0
# Processed by: cddbd v1.5.2PL0 Copyright (c) Steve Scherf et al.
# Submitted via: ExactAudioCopy v1.0b3
#
DISCID=9b08840c
DTITLE=黛ジュン - 黛ジュン スーパーベスト
DYEAR=2011
DGENRE=JPop
TTITLE0=天使の誘惑
TTITLE1=恋のハレルヤ
TTITLE2=夕月
TTITLE3=乙女の祈り
TTITLE4=雲にのりたい
TTITLE5=自由の女神
TTITLE6=土曜の夜何かが起きる
TTITLE7=真赤な太陽
TTITLE8=涙でいいの
TTITLE9=時は流れる
TTITLE10=ブラック・ルーム
TTITLE11=砂に消えた涙
EXTD=
EXTT0=
EXTT1=
EXTT2=
EXTT3=
EXTT4=
EXTT5=
EXTT6=
EXTT7=
EXTT8=
EXTT9=
EXTT10=
EXTT11=
PLAYORDER=
